<svg xmlns="http://www.w3.org/2000/svg" viewBox="0 0 800 620" role="img" aria-label="Nintendo 3DS Aqua Blue handheld illustration">
<defs><linearGradient id="a" x1="0" y1="0" x2="0" y2="1"><stop stop-color="#36b4ce"/><stop offset="1" stop-color="#1789a8"/></linearGradient></defs>
<rect x="116" y="34" width="568" height="246" rx="42" fill="url(#a)" stroke="#0f657c" stroke-width="10"/>
<rect x="147" y="62" width="506" height="190" rx="24" fill="#0b1116" stroke="#68d1e4" stroke-width="4"/>
<rect x="171" y="84" width="222" height="145" rx="6" fill="#19252e" stroke="#8bcbd8" stroke-width="3"/>
<rect x="407" y="84" width="222" height="145" rx="6" fill="#19252e" stroke="#8bcbd8" stroke-width="3"/>
<circle cx="400" cy="45" r="7" fill="#0d1a20"/><circle cx="437" cy="45" r="7" fill="#0d1a20"/><circle cx="460" cy="45" r="7" fill="#0d1a20"/>
<path d="M400 280v44" stroke="#0d667d" stroke-width="14"/>
<rect x="116" y="324" width="568" height="250" rx="42" fill="url(#a)" stroke="#0f657c" stroke-width="10"/>
<rect x="262" y="354" width="276" height="142" rx="12" fill="#10161b" stroke="#66cfdf" stroke-width="4"/>
<circle cx="205" cy="384" r="42" fill="#10161b" stroke="#76d3e2" stroke-width="6"/><circle cx="205" cy="384" r="24" fill="#2a3339"/>
<path d="M150 468h72M186 432v72" stroke="#e2f7fb" stroke-width="13" stroke-linecap="round"/>
<circle cx="575" cy="428" r="13" fill="#ec4b59"/><circle cx="610" cy="393" r="13" fill="#52c76c"/><circle cx="645" cy="428" r="13" fill="#e6c844"/><circle cx="610" cy="463" r="13" fill="#5d7ff1"/>
<circle cx="383" cy="530" r="9" fill="#0d1b21"/><circle cx="417" cy="530" r="9" fill="#0d1b21"/>
<circle cx="318" cy="306" r="6" fill="#8ce0ea"/><circle cx="482" cy="306" r="6" fill="#8ce0ea"/>
</svg>
